<svg width="35" height="36" viewBox="0 0 35 36" fill="none" xmlns="http://www.w3.org/2000/svg">
<path d="M31.7998 15.0623H30.6251V15H17.5001V21H25.7419C24.5395 24.4928 21.3085 27 17.5001 27C12.6679 27 8.75008 22.9702 8.75008 18C8.75008 13.0297 12.6679 9 17.5001 9C19.7306 9 21.7599 9.8655 23.305 11.2792L27.4299 7.0365C24.8253 4.53975 21.3413 3 17.5001 3C9.44643 3 2.91675 9.71625 2.91675 18C2.91675 26.2838 9.44643 33 17.5001 33C25.5537 33 32.0834 26.2838 32.0834 18C32.0834 16.9943 31.9828 16.0125 31.7998 15.0623Z" fill="#FFC107"/>
<path d="M4.59814 11.0182L9.3895 14.6325C10.686 11.331 13.8257 9 17.5 9C19.7305 9 21.7598 9.8655 23.3049 11.2792L27.4298 7.0365C24.8252 4.53975 21.3413 3 17.5 3C11.8986 3 7.04085 6.25275 4.59814 11.0182Z" fill="#FF3D00"/>
<path d="M17.4999 33.0005C21.2668 33.0005 24.6895 31.5178 27.2773 29.1065L22.7638 25.178C21.2507 26.3623 19.4013 27.0026 17.4999 27.0005C13.7068 27.0005 10.486 24.5128 9.27271 21.041L4.51709 24.8098C6.93063 29.6675 11.8321 33.0005 17.4999 33.0005Z" fill="#4CAF50"/>
<path d="M31.7997 15.0623H30.625V15H17.5V21H25.7418C25.1666 22.6623 24.1306 24.1149 22.7617 25.1782L22.7639 25.1768L27.2774 29.1052C26.958 29.4037 32.0833 25.5 32.0833 18C32.0833 16.9943 31.9827 16.0125 31.7997 15.0623Z" fill="#1976D2"/>
</svg>
