<svg width="56" height="46" viewBox="0 0 56 46" fill="none" xmlns="http://www.w3.org/2000/svg">
<path d="M30.3663 0C25.8666 0 22.0719 3.04458 22.0719 6.94062C22.0719 8.90856 23.0408 10.6587 24.579 11.9094L25.5418 10.1294C24.6469 9.25356 24.1169 8.13612 24.1169 6.94062C24.1169 4.23164 26.8337 1.92202 30.3662 1.92202C33.8987 1.92202 36.6154 4.23164 36.6154 6.94062C36.6154 8.79889 35.3368 10.4692 33.3935 11.335L32.5434 13.6367C32.7581 13.5879 32.9709 13.5316 33.1812 13.468L34.2217 15.1779C33.0485 15.9534 31.9129 16.9147 30.6956 18.1113L39.9388 37.2666C45.65 37.5141 51.1606 34.6681 54 30.0045L41.7481 12.4034C39.4568 12.8334 37.6134 13.3702 35.9675 14.1757L35.0483 12.6655C37.2136 11.4252 38.6607 9.34571 38.6607 6.94073C38.6607 3.04469 34.866 0.000107127 30.3663 0.000107127V0ZM16.4287 0.635014C16.1264 0.638217 15.809 0.6852 15.5024 0.778952C14.8014 0.992936 14.2083 1.43393 13.9503 1.90974L13.9176 1.9706L6.54306 11.826C6.30048 12.3013 6.27242 12.9949 6.49114 13.638C6.71498 14.2954 7.17799 14.8451 7.65032 15.0712L23.9758 22.8831C24.4385 23.1047 25.1791 23.1399 25.8674 22.9287C26.5429 22.7216 27.1168 22.3003 27.3903 21.8084L30.2718 13.879L30.2888 13.8794L31.0077 11.9329C30.9979 11.9337 30.9878 11.9339 30.9781 11.9348L31.5355 10.4009L31.5684 10.3402C31.8263 9.86444 31.857 9.15287 31.6309 8.49489C31.4048 7.83692 30.9378 7.28242 30.4454 7.04676L26.8006 5.30274C26.0572 6.17598 25.8291 7.42422 26.7613 8.599L27.001 8.97615L28.17 9.55275L27.2319 11.2841L27.2153 11.2766L26.2929 12.9818L26.3083 12.9888L25.5921 14.3103L14.0492 8.78683L16.1633 4.88534L16.6271 4.02898L20.1328 5.70669C20.3096 4.65919 20.692 3.65141 21.3071 2.67374L17.4673 0.836612C17.1817 0.699935 16.8173 0.631063 16.4287 0.635014ZM41.1902 14.6636L43.9265 19.3427L35.7611 23.5594L33.5173 19.7228L33.0248 18.8806L41.1902 14.6636ZM40.3828 17.2737L35.8024 19.6393L36.5685 20.9495L41.1488 18.5839L40.3828 17.2737ZM10.9223 18.7938L8.551 23.171L16.4487 26.9501L18.8203 22.573L10.9223 18.7938ZM44.6925 20.6528L47.4285 25.3316L39.2633 29.5483L37.0198 25.7117L36.5274 24.8695L44.6927 20.6526L44.6925 20.6528ZM43.8851 23.2627L39.3045 25.6283L40.0708 26.9385L44.6513 24.5729L43.8851 23.2627ZM9.24296 25.6588H9.24274L0 42.7174L0.695711 44.728L9.47464 28.5257L11.2969 29.3979L2.51822 45.6L5.06052 44.8232L6.53397 44.3729L5.74021 42.0712L8.18264 41.3269L7.38773 39.0303L9.83289 38.2831L9.22274 36.5208L13.9006 27.8875L9.24296 25.6588Z" fill="#023347"/>
<path d="M33.4738 41.4468V31.2397H41.5172V41.4468C41.5172 42.5696 42.4221 43.4883 43.5281 43.4883H49.5607C50.6666 43.4883 51.5715 42.5696 51.5715 41.4468V27.1568H54.99C55.915 27.1568 56.3573 25.9932 55.6535 25.3808L38.8428 10.0088C38.0787 9.31476 36.9124 9.31476 36.1483 10.0088L19.3375 25.3808C18.6538 25.9932 19.0761 27.1568 20.0011 27.1568H23.4196V41.4468C23.4196 42.5696 24.3244 43.4883 25.4304 43.4883H31.463C32.5689 43.4883 33.4738 42.5696 33.4738 41.4468Z" fill="#25794A"/>
</svg>
