<svg width="41" height="38" viewBox="0 0 41 38" fill="none" xmlns="http://www.w3.org/2000/svg">
<path d="M20.7448 5.84371C20.6191 5.7234 20.4517 5.65625 20.2777 5.65625C20.1036 5.65625 19.9363 5.7234 19.8105 5.84371L4.25807 20.7009C4.19202 20.7641 4.13947 20.84 4.10361 20.9241C4.06774 21.0082 4.04931 21.0986 4.04941 21.19L4.04688 35.134C4.04688 35.851 4.33169 36.5386 4.83865 37.0455C5.34562 37.5525 6.03322 37.8373 6.75018 37.8373H14.8685C15.227 37.8373 15.5708 37.6949 15.8243 37.4414C16.0778 37.1879 16.2202 36.8441 16.2202 36.4857V24.9966C16.2202 24.8174 16.2914 24.6455 16.4181 24.5187C16.5449 24.392 16.7168 24.3208 16.896 24.3208H23.6543C23.8335 24.3208 24.0054 24.392 24.1322 24.5187C24.2589 24.6455 24.3301 24.8174 24.3301 24.9966V36.4857C24.3301 36.8441 24.4725 37.1879 24.726 37.4414C24.9795 37.6949 25.3233 37.8373 25.6818 37.8373H33.7967C34.5137 37.8373 35.2013 37.5525 35.7083 37.0455C36.2152 36.5386 36.5 35.851 36.5 35.134V21.19C36.5001 21.0986 36.4817 21.0082 36.4458 20.9241C36.41 20.84 36.3574 20.7641 36.2914 20.7009L20.7448 5.84371Z" fill="#25794A"/>
<path d="M40.1196 17.9221L33.8006 11.8768V2.7033C33.8006 2.34482 33.6582 2.00103 33.4047 1.74754C33.1513 1.49406 32.8075 1.35165 32.449 1.35165H28.394C28.0355 1.35165 27.6917 1.49406 27.4383 1.74754C27.1848 2.00103 27.0424 2.34482 27.0424 2.7033V5.40661L22.1494 0.728203C21.6915 0.265262 21.0106 0 20.2748 0C19.5415 0 18.8623 0.265262 18.4045 0.729047L0.43594 17.9204C-0.0895149 18.4272 -0.155408 19.261 0.322739 19.8102C0.442809 19.9488 0.589826 20.0615 0.754844 20.1415C0.919862 20.2214 1.09943 20.267 1.28262 20.2754C1.4658 20.2838 1.64878 20.2548 1.82041 20.1902C1.99203 20.1256 2.14873 20.0268 2.28095 19.8997L19.8102 3.14935C19.936 3.02904 20.1033 2.96189 20.2774 2.96189C20.4514 2.96189 20.6187 3.02904 20.7445 3.14935L38.2754 19.8997C38.5337 20.1473 38.8796 20.2825 39.2373 20.2755C39.595 20.2686 39.9354 20.12 40.1838 19.8625C40.7025 19.3252 40.6594 18.4382 40.1196 17.9221Z" fill="#25794A"/>
</svg>
