<svg width="32" height="28" viewBox="0 0 32 28" fill="none" xmlns="http://www.w3.org/2000/svg">
<path d="M3.00586 24.0898H28.7575V26.0951H3.00586V24.0898Z" fill="#BBBCBE"/>
<path d="M6.6875 1.33594H10.0252V7.11359H6.6875V1.33594Z" fill="#633D19"/>
<path d="M3.00586 23.0859H28.7575V25.0932H3.00586V23.0859Z" fill="#F0CA93"/>
<path d="M4.73943 9.41797L3.18176 9.88042L1.88304 10.9529L0.595703 12.4927H4.21014L4.73943 9.41797ZM26.934 9.41797L28.4887 9.88042L29.786 10.9529L31.0778 12.4927H27.4638L26.934 9.41797Z" fill="#992C3E"/>
<path d="M19.8395 23.4883C20.1232 23.4883 20.3549 23.7561 20.3549 24.0854C20.3549 24.4191 20.1232 24.6845 19.8395 24.6845H11.7654C11.4807 24.6845 11.25 24.4191 11.25 24.0854C11.25 23.7561 11.4802 23.4883 11.7654 23.4883H19.8395Z" fill="#BBBCBE"/>
<path d="M20.3595 24.6836C20.6838 24.6836 20.9487 24.9539 20.9487 25.2857C20.9487 25.6149 20.6838 25.8848 20.3595 25.8848H11.157C10.8337 25.8848 10.5703 25.6149 10.5703 25.2857C10.5703 24.9539 10.8337 24.6836 11.157 24.6836H20.3595Z" fill="#999999"/>
<path d="M20.937 25.8867C21.299 25.8867 21.5921 26.1571 21.5921 26.4863C21.5921 26.8156 21.299 27.0859 20.937 27.0859H10.6775C10.3166 27.0859 10.0234 26.8156 10.0234 26.4863C10.0234 26.1571 10.3166 25.8867 10.6775 25.8867H20.937Z" fill="#7C7D7E"/>
<path d="M3.70117 10.2391L15.8724 0.578125L28.0634 10.2391V23.4149H3.70315L3.70117 10.2391Z" fill="#E7E5E5"/>
<path d="M8.15287 23.4149H3.70117V9.92763L15.5605 0.578125L16.1383 0.901938L8.15188 10.0851L8.15287 23.4149Z" fill="#D1D2D2"/>
<path d="M16.2096 0.281179C16.4027 0.59212 16.2973 1.03625 15.9814 1.27144L1.01863 12.346C0.701743 12.5821 0.287321 12.5188 0.0957067 12.2073C-0.0949175 11.8939 0.00806906 11.4493 0.325941 11.2171L15.2887 0.140563C15.6056 -0.0926421 16.02 -0.0292657 16.2106 0.28316" fill="#DF394C"/>
<path d="M15.4821 0.281076C15.2914 0.592016 15.3959 1.03615 15.7128 1.27133L30.6756 12.3464C30.9949 12.5825 31.4069 12.5192 31.5985 12.2077C31.7906 11.8943 31.6871 11.4497 31.3687 11.2175L16.406 0.140955C16.0866 -0.0927457 15.6732 -0.029369 15.4826 0.283057" fill="#DF394C"/>
<path d="M18.4967 23.5857V19.0998C18.4967 17.508 17.3252 16.2227 15.8814 16.2227C14.4351 16.2227 13.2656 17.508 13.2656 19.0998V23.5857H18.4967Z" fill="#4E6B78"/>
<path d="M16.7246 16.3771C16.4558 16.2752 16.1708 16.2229 15.8833 16.2227C14.4371 16.2227 13.2676 17.508 13.2676 19.0998V23.5857H14.949V19.0998C14.949 17.8328 15.6912 16.7609 16.7246 16.3771Z" fill="#405967"/>
<path d="M10.8808 1.11484C10.8808 1.41143 10.5981 1.65156 10.2485 1.65156H6.53853C6.18897 1.65156 5.90625 1.41093 5.90625 1.11484C5.90625 0.818757 6.18897 0.578125 6.53853 0.578125H10.2485C10.5981 0.578125 10.8808 0.818262 10.8808 1.11484Z" fill="#DF394C"/>
<path d="M10.9267 18.4556C10.9267 19.0705 10.3979 19.5701 9.74481 19.5701H6.53638C5.8838 19.5701 5.35352 19.07 5.35352 18.4556V13.9945C5.35352 13.379 5.8838 12.8799 6.53638 12.8799H9.74481C10.3974 12.8799 10.9267 13.38 10.9267 13.9945V18.4556ZM26.3252 18.2402C26.3252 18.8556 25.7964 19.3552 25.1423 19.3552H21.9344C21.2803 19.3552 20.752 18.8551 20.752 18.2402V13.7791C20.752 13.1612 21.2798 12.6641 21.9344 12.6641H25.1423C25.7959 12.6641 26.3252 13.1592 26.3252 13.7791V18.2402Z" fill="#28A6DE"/>
</svg>
