<svg width="23" height="21" viewBox="0 0 23 21" fill="none" xmlns="http://www.w3.org/2000/svg">
<path d="M4.62841 2.25366C4.6281 2.85107 4.38399 3.42389 3.94977 3.84611C3.51556 4.26833 2.92681 4.50537 2.31305 4.50507C1.69928 4.50477 1.11078 4.26716 0.676996 3.84452C0.243216 3.42188 -0.000306593 2.84882 2.89694e-07 2.25141C0.000307172 1.654 0.244419 1.08118 0.678633 0.658956C1.11285 0.236735 1.7016 -0.000298423 2.31536 2.81974e-07C2.92913 0.000298987 3.51763 0.237905 3.95141 0.660549C4.38519 1.08319 4.62871 1.65625 4.62841 2.25366ZM4.69783 6.17307H0.0694263V20.2739H4.69783V6.17307ZM12.0107 6.17307H7.40545V20.2739H11.9644V12.8744C11.9644 8.75222 17.4838 8.36929 17.4838 12.8744V20.2739H22.0544V11.3426C22.0544 4.39357 13.8852 4.65261 11.9644 8.0652L12.0107 6.17307Z" fill="white"/>
</svg>
