<svg width="23" height="23" viewBox="0 0 23 23" fill="none" xmlns="http://www.w3.org/2000/svg">
<path d="M7.60215 10.741C7.5941 10.3244 7.66919 9.91049 7.82302 9.52333C7.97685 9.13618 8.20634 8.78359 8.49805 8.48618C8.78977 8.18876 9.13787 7.95251 9.52198 7.79123C9.90609 7.62995 10.3185 7.54688 10.7351 7.54688C11.1517 7.54688 11.5641 7.62995 11.9482 7.79123C12.3323 7.95251 12.6804 8.18876 12.9721 8.48618C13.2639 8.78359 13.4934 9.13618 13.6472 9.52333C13.801 9.91049 13.8761 10.3244 13.8681 10.741C13.8522 11.5614 13.5152 12.3429 12.9293 12.9175C12.3435 13.4921 11.5557 13.814 10.7351 13.814C9.91452 13.814 9.12668 13.4921 8.54086 12.9175C7.95505 12.3429 7.618 11.5614 7.60215 10.741Z" fill="#38A668"/>
<path d="M0 11.4043C0 5.1056 5.1056 0 11.4043 0C17.7029 0 22.8085 5.1056 22.8085 11.4043C22.8085 17.7029 17.7029 22.8085 11.4043 22.8085C5.1056 22.8085 0 17.7029 0 11.4043ZM10.7364 5.84834C9.96961 5.84832 9.21359 6.02869 8.52942 6.37487C7.84525 6.72105 7.25211 7.22333 6.79795 7.84112C6.34378 8.45891 6.04132 9.17488 5.91501 9.93117C5.7887 10.6875 5.84208 11.4629 6.07085 12.1947C6.29961 12.9265 6.69733 13.5943 7.23188 14.144C7.76642 14.6938 8.4228 15.11 9.14795 15.3592C9.87311 15.6083 10.6467 15.6834 11.4062 15.5783C12.1658 15.4732 12.8899 15.1909 13.5202 14.7542L15.4618 16.7017C15.5426 16.7856 15.6393 16.8525 15.7463 16.8986C15.8533 16.9448 15.9683 16.9691 16.0848 16.9703C16.2013 16.9715 16.3168 16.9494 16.4247 16.9055C16.5326 16.8615 16.6306 16.7965 16.7131 16.7143C16.7956 16.632 16.8608 16.5342 16.9051 16.4264C16.9494 16.3187 16.9717 16.2032 16.9709 16.0867C16.97 15.9703 16.946 15.8551 16.9002 15.748C16.8544 15.6409 16.7877 15.544 16.704 15.463L14.7589 13.512C15.265 12.7783 15.5609 11.9202 15.6145 11.0305C15.6681 10.1408 15.4775 9.25332 15.0631 8.46415C14.6488 7.67497 14.0266 7.01412 13.2637 6.55306C12.5009 6.09201 11.6277 5.84831 10.7364 5.84834Z" fill="#38A668"/>
</svg>
