<svg width="47" height="47" viewBox="0 0 47 47" fill="none" xmlns="http://www.w3.org/2000/svg">
<path d="M32.717 33.5017C34.7855 32.1597 34.5174 26.9881 32.1203 21.9426C31.0919 19.7701 29.8276 18.0108 28.5632 16.7809C27.0513 18.0905 25.22 18.8008 23.3373 18.8078C21.4517 18.8029 19.6171 18.0925 18.1029 16.7809C16.8386 18.0108 15.5776 19.772 14.5459 21.9426C12.147 26.9862 11.8824 32.1597 13.9559 33.5017C14.8797 34.1157 15.8541 33.6552 16.8588 32.5257C16.6706 33.7426 16.5764 34.9768 16.5773 36.2134C16.5773 41.995 18.4991 46.6667 20.8642 46.6667C22.2904 46.6667 22.9968 44.9645 23.3356 42.361C23.6728 44.9468 24.3808 46.6667 25.7969 46.6667C28.1519 46.6667 30.0889 41.993 30.0889 36.2134C30.0889 34.9147 29.9844 33.6749 29.8057 32.5277C30.8171 33.6592 31.7882 34.1275 32.7153 33.5057L32.717 33.5017ZM23.3339 16.8399C24.2904 16.8566 25.2401 16.6511 26.1279 16.2352C27.0157 15.8194 27.8237 15.2016 28.505 14.4178C29.1863 13.6341 29.7273 12.6999 30.0964 11.6698C30.4655 10.6396 30.6555 9.5341 30.6551 8.41749C30.6548 7.30087 30.4642 6.19548 30.0945 5.16565C29.7247 4.13582 29.1832 3.20212 28.5014 2.41889C27.8196 1.63566 27.0112 1.01854 26.1232 0.603446C25.2352 0.188351 24.2853 -0.0164273 23.3289 0.00102912C21.4351 0.0355936 19.6289 0.938244 18.3003 2.51407C16.9718 4.08989 16.2275 6.21244 16.2281 8.42339C16.2288 10.6343 16.9744 12.7563 18.3039 14.331C19.6334 15.9058 21.4401 16.8069 23.3339 16.8399ZM37.8216 22.1807C39.3621 22.1281 40.8244 21.3769 41.8981 20.0863C42.9718 18.7958 43.5724 17.0676 43.5724 15.2686C43.5724 13.4696 42.9718 11.7414 41.8981 10.4509C40.8244 9.16037 39.3621 8.40909 37.8216 8.35653C36.2507 8.35679 34.7443 9.08548 33.6336 10.3823C32.523 11.6791 31.8992 13.4378 31.8994 15.2716C31.8996 17.1053 32.5239 18.8638 33.6348 20.1602C34.7458 21.4567 36.2524 22.1849 37.8233 22.1846L37.8216 22.1807ZM45.0368 26.3722C44.1905 24.5854 43.1554 23.141 42.117 22.1315C40.8748 23.2058 39.3709 23.7885 37.825 23.7943C36.5505 23.7943 35.3637 23.387 34.3253 22.712C35.1614 24.8629 35.679 27.0413 35.775 28.9895C35.9335 31.9727 35.1344 34.1846 33.5363 35.2177C33.194 35.438 32.8215 35.5872 32.4355 35.6585C32.3394 36.4299 32.2737 37.2328 32.2737 38.079C32.2737 42.8274 33.8499 46.6627 35.7936 46.6627C36.9635 46.6627 37.5468 45.2656 37.8233 43.1285C38.0981 45.2537 38.6797 46.6627 39.8462 46.6627C41.7765 46.6627 43.3695 42.8254 43.3695 38.0829C43.3695 37.0144 43.2802 35.997 43.1335 35.0524C43.9629 35.9832 44.762 36.3669 45.524 35.8553C47.2216 34.7533 47.0024 30.5067 45.0351 26.3702L45.0368 26.3722ZM8.84624 22.1807C10.0171 22.1799 11.1614 21.7739 12.1346 21.014C13.1077 20.2542 13.8661 19.1745 14.3137 17.9116C14.7613 16.6487 14.878 15.2593 14.6492 13.9189C14.4204 12.5785 13.8562 11.3475 13.0281 10.3813C12.2 9.41518 11.145 8.75735 9.99666 8.491C8.84829 8.22466 7.65805 8.36175 6.57642 8.88495C5.49479 9.40815 4.57033 10.294 3.91993 11.4304C3.26953 12.5668 2.92238 13.9029 2.92238 15.2696C2.92283 17.1034 3.54709 18.862 4.65793 20.1587C5.76878 21.4554 7.27527 22.1841 8.84624 22.1846V22.1807ZM13.1197 35.2118C10.4359 33.4703 10.1898 28.2771 12.351 22.7081C11.2828 23.4162 10.0763 23.791 8.84793 23.7963C7.23632 23.7963 5.75956 23.1666 4.54917 22.1315C3.51241 23.139 2.47902 24.5834 1.62938 26.3683C-0.337937 30.5086 -0.553718 34.7553 1.14556 35.8533C1.90416 36.361 2.70491 35.9812 3.52926 35.0544C3.37928 36.0538 3.30314 37.0663 3.30168 38.0809C3.30168 42.8274 4.8779 46.6608 6.82161 46.6608C7.99155 46.6608 8.57483 45.2636 8.8513 43.1285C9.12946 45.2537 9.71105 46.6627 10.8742 46.6627C12.8078 46.6627 14.3976 42.8254 14.3976 38.0829C14.3976 37.2308 14.3301 36.426 14.234 35.6546C13.8437 35.5836 13.4671 35.433 13.1214 35.2098L13.1197 35.2118Z" fill="#25794A"/>
</svg>
