<svg width="47" height="47" viewBox="0 0 47 47" fill="none" xmlns="http://www.w3.org/2000/svg">
<path d="M20.8979 8.74817H28.2042L36.2167 0.719644C36.4432 0.491613 36.7125 0.31062 37.0093 0.187106C37.3061 0.0635914 37.6244 0 37.9459 0C38.2674 0 38.5857 0.0635914 38.8825 0.187106C39.1793 0.31062 39.4487 0.491613 39.6751 0.719644L45.9585 7.02082C46.4121 7.47665 46.6667 8.09327 46.6667 8.73601C46.6667 9.37874 46.4121 9.99536 45.9585 10.4512L40.3813 16.0468H20.8979V20.9126C20.8979 21.5579 20.6413 22.1767 20.1846 22.6329C19.7279 23.0892 19.1084 23.3455 18.4625 23.3455C17.8166 23.3455 17.1971 23.0892 16.7404 22.6329C16.2836 22.1767 16.027 21.5579 16.027 20.9126V13.6139C16.027 12.3235 16.5402 11.0858 17.4537 10.1733C18.3672 9.26081 19.6061 8.74817 20.8979 8.74817ZM6.28534 20.9126V30.6442L0.708205 36.2155C0.254604 36.6713 0 37.2879 0 37.9307C0 38.5734 0.254604 39.19 0.708205 39.6458L6.99161 45.947C7.21801 46.1751 7.48737 46.356 7.78415 46.4796C8.08093 46.6031 8.39926 46.6667 8.72076 46.6667C9.04227 46.6667 9.36059 46.6031 9.65737 46.4796C9.95415 46.356 10.2235 46.1751 10.4499 45.947L20.8979 35.5099H30.6396C31.2855 35.5099 31.905 35.2536 32.3617 34.7974C32.8185 34.3411 33.075 33.7223 33.075 33.077V30.6442H35.5105C36.1564 30.6442 36.7759 30.3878 37.2326 29.9316C37.6893 29.4753 37.9459 28.8565 37.9459 28.2113V25.7784H40.3813C41.0272 25.7784 41.6467 25.5221 42.1034 25.0658C42.5602 24.6096 42.8168 23.9907 42.8168 23.3455V20.9126H25.7688V23.3455C25.7688 24.636 25.2556 25.8736 24.3421 26.7861C23.4287 27.6986 22.1897 28.2113 20.8979 28.2113H16.027C14.7352 28.2113 13.4963 27.6986 12.5828 26.7861C11.6694 25.8736 11.1562 24.636 11.1562 23.3455V16.0468L6.28534 20.9126Z" fill="#25794A"/>
</svg>
